<svg xmlns:xlink="http://www.w3.org/1999/xlink" xmlns="http://www.w3.org/2000/svg" class="icon-sprite icon-2x icon-pulse" width="64"  height="64" ><defs><symbol id="alarm" viewBox="0 0 64 64">
  <title>Alarm</title>
  <desc>Alarm symbol</desc>
  <g fill="currentColor">
    <rect x="7" y="27" width="8" height="2"></rect>
    <rect x="49" y="27" width="8" height="2"></rect>
    <rect x="31" y="3" width="2" height="8"></rect>
    <path d="M47.2,20.4l6.9-4l-1-1.7l-6.9,4L47.2,20.4z"></path>
    <path d="M41.4,13.8l4-6.9l-1.7-1l-4,6.9L41.4,13.8z"></path>
    <path d="M24.4,12.8l-4-6.9l-1.7,1l4,6.9L24.4,12.8z"></path>
    <path d="M17.8,18.6l-6.9-4l-1,1.7l6.9,4L17.8,18.6z"></path>
    <path d="M13,52v-5c0-2.2,1.8-4,4-4h30c2.2,0,4,1.8,4,4v5H13z"></path>
    <path d="M32,14c-7.7,0-14,6.3-14,14v13h17V28c0-1.7,1.3-3,3-3s3,1.3,3,3v13h5V28C46,20.3,39.7,14,32,14z"></path>
  </g>
 </symbol></defs><use xlink:href="#alarm"></use></svg>