<svg xmlns:xlink="http://www.w3.org/1999/xlink" xmlns="http://www.w3.org/2000/svg" class="icon-sprite" width="64"  height="64" ><defs><symbol id="appliances" viewBox="0 0 64 64">
  <title>Appliances</title>
  <desc>appliances symbol</desc>
  <g fill="currentColor">
    <path d="M44,19v-8c0-1.1-0.9-2-2-2h-2c-1.1,0-2,0.9-2,2v8H26v-8c0-1.1-0.9-2-2-2h-2c-1.1,0-2,0.9-2,2v8h-6v6h36v-6H44z"></path>
    <path d="M16,27v6c0,6.5,3.2,10.9,9,13v3h4v6h6v-6h4v-3c5.8-2.1,9-6.5,9-13v-6H16z"></path>
  </g>
 </symbol></defs><use xlink:href="#appliances"></use></svg>