<svg xmlns:xlink="http://www.w3.org/1999/xlink" xmlns="http://www.w3.org/2000/svg" class="icon-sprite" width="64"  height="64" ><defs><symbol id="bulb-eco" viewBox="0 0 64 64">
  <title>Bulb eco</title>
  <desc>Bulb eco symbol</desc>
  <g fill="currentColor">
    <path d="M39,49H25v4h4c0.6,1.2,1.6,2,3,2c1.4,0,2.4-0.8,3-2h4V49z"></path>
    <path d="M19.1,17.8c0.3,0,0.7-0.1,1-0.2L34,13.2c1.4-0.5,2.1-2.1,1.6-3.4c-0.5-1.4-2.1-2-3.5-1.5l-13.8,4.4
			c-1.4,0.5-2.1,2.1-1.6,3.4C17,17.1,18.1,17.8,19.1,17.8z"></path>
    <path d="M19.1,25.7c0.3,0,0.7-0.1,1-0.2l25.6-8.8c1.4-0.5,2.1-2.1,1.6-3.4c-0.5-1.4-2.1-2-3.5-1.5l-25.6,8.8
			c-1.4,0.5-2.1,2.1-1.6,3.4C17,25.1,18.1,25.7,19.1,25.7z"></path>
    <path d="M44.7,28.3c-0.2,0-1.3,0-3.4,0.5c-3.8,0.9-6.5,4.3-6.6,8.1h-5.7c0-2.3-1-4.4-2.6-5.9l19.2-6.4
			c1.4-0.5,2.1-2.1,1.6-3.4c-0.5-1.4-2.1-2-3.5-1.5l-25.6,8.8c0,0,0,0,0,0c-0.1,0-0.1,0.1-0.2,0.1c-1.2,0.6-1.8,2-1.3,3.3
			c0.4,1,1.4,1.7,2.5,1.7c0,0,0,0,0,0c0,0,0.7,0,2.1,0.4c1.1,0.3,2.4,1.3,2.4,3H21v8l2,2h18l2-2v-8h-2.8c0.1-1.7,1.3-2.7,2.5-3
			c1.3-0.3,2-0.4,2.1-0.4c1.5,0,2.7-1.2,2.7-2.6C47.4,29.5,46.2,28.3,44.7,28.3z"></path>
  </g>
 </symbol></defs><use xlink:href="#bulb-eco"></use></svg>