<svg xmlns:xlink="http://www.w3.org/1999/xlink" xmlns="http://www.w3.org/2000/svg" class="icon-sprite icon-1x" width="64"  height="64" ><defs><symbol id="fan" viewBox="0 0 64 64">
  <title>Fan</title>
  <desc>Fan symbol</desc>
  <g fill="currentColor">
    <path d="M32,10c-12.15,0-22,9.85-22,22c0,12.15,9.85,22,22,22c12.15,0,22-9.85,22-22C54,19.85,44.15,10,32,10z M32,52
		c-11.05,0-20-8.95-20-20c0-11.05,8.95-20,20-20c11.05,0,20,8.95,20,20C52,43.05,43.05,52,32,52z"></path>
    <path d="M50.01,30.22c-0.17-1.66-1.52-2.02-2.82-0.98c-2.63,2.09-5.31,3.43-8.26,3.74C38.97,32.66,39,32.33,39,32
		c0-1.08-0.25-2.11-0.7-3.03c3.19-2.31,5.35-5.51,4.76-9.05c-1.01-6.04-9.65-6.26-12.84-5.94c-1.66,0.17-2.02,1.52-0.98,2.82
		c2.09,2.63,3.43,5.31,3.74,8.26C32.66,25.03,32.33,25,32,25c-1.09,0-2.11,0.25-3.03,0.69c-2.31-3.19-5.51-5.35-9.05-4.76
		c-6.04,1.01-6.26,9.65-5.94,12.84c0.17,1.66,1.52,2.02,2.82,0.98c2.63-2.09,5.31-3.43,8.26-3.75C25.03,31.34,25,31.67,25,32
		c0,1.08,0.25,2.11,0.69,3.03c-3.19,2.31-5.35,5.51-4.76,9.05c1.01,6.04,9.65,6.25,12.84,5.94c1.66-0.17,2.02-1.52,0.98-2.82
		c-2.09-2.63-3.43-5.31-3.75-8.26C31.34,38.97,31.67,39,32,39c1.08,0,2.11-0.25,3.03-0.7c2.31,3.19,5.51,5.35,9.05,4.76
		C50.11,42.06,50.33,33.42,50.01,30.22z M27,32c0-2.76,2.24-5,5-5c2.76,0,5,2.24,5,5c0,2.76-2.24,5-5,5C29.24,37,27,34.76,27,32z"></path>
    <circle cx="32" cy="32" r="3"></circle>
  </g>
 </symbol></defs>
                        			<use xlink:href="#fan"></use>
                      			</svg>