<svg xmlns:xlink="http://www.w3.org/1999/xlink" xmlns="http://www.w3.org/2000/svg" class="icon-sprite icon-2x icon-pulse" width="64"  height="64" ><defs><symbol id="fire" viewBox="0 0 64 64">
  <title>Fire</title>
  <desc>Fire symbol</desc>
  <g fill="currentColor">
    <path d="M52,32c-1.58-3.95-4.58-5.83-2-14c-2.56-0.45-7.22,1.14-10,5c-4.46-4.78-7-11-6-18c-6,4-12,11-10,24c-3-6-7.57-6.92-12-7
		c2.36,3.83,3.76,8.94,1,12c-1.81,2-8.23,18,15.15,18c-4.49-1.99-7.05-6.81-3.15-13c0.57,2.13,2.67,3.62,4,3
		c3.69-1.71,3.56-8.19,3-12c4,3,5,7,3.9,10.36C39,39,39.18,38.19,40,35c4.86,6.48,2.5,14.27-2.83,17C57,52,54,37,52,32z"></path>
  </g>
 </symbol></defs><use xlink:href="#fire"></use></svg>