<svg xmlns:xlink="http://www.w3.org/1999/xlink" xmlns="http://www.w3.org/2000/svg" class="icon-sprite icon-2x" width="64"  height="64" ><defs><symbol id="home" viewBox="0 0 64 64">
  <title>Home</title>
  <desc>Home symbol</desc>
  <g fill="currentColor">
    <polygon points="10,29 32,10 54,29"></polygon>
    <polygon points="15,31 15,51 28,51 28,42 36,42 36,51 49,51 49,31"></polygon>
  </g>
 </symbol><symbol id="subicon-unlocked" viewBox="0 0 64 64">
    <g class="subicon-unlocked" fill="currentColor">
     <path d="M55,46v-3c0-3.31-2.69-6-6-6s-6,2.69-6,6h3c0-1.66,1.34-3,3-3s3,1.34,3,3v3H41v11h16V46H55z M50,51.72V55
		h-2v-3.28c-0.6-0.35-1-0.98-1-1.72c0-1.1,0.9-2,2-2s2,0.9,2,2C51,50.74,50.6,51.38,50,51.72z"></path>
    </g>
 </symbol><symbol id="subicon-locked" viewBox="0 0 64 64">
    <g class="subicon-locked" fill="currentColor">
     <path d="M55,46v-2c0-3.31-2.69-6-6-6s-6,2.69-6,6v2h-2v11h16V46H55z M50,51.72V55h-2v-3.28c-0.6-0.35-1-0.98-1-1.72c0-1.1,0.9-2,2-2s2,0.9,2,2C51,50.74,50.6,51.38,50,51.72z M52,46h-6v-2c0-1.66,1.34-3,3-3s3,1.34,3,3V46z"></path>
    </g>
 </symbol></defs>
								<use xlink:href="#home"></use>
								<use class="subicon-unlocked" xlink:href="#subicon-unlocked"></use>
								<use class="subicon-locked" xlink:href="#subicon-locked"></use>
							</svg>