<svg xmlns:xlink="http://www.w3.org/1999/xlink" xmlns="http://www.w3.org/2000/svg" class="icon-sprite" width="64"  height="64" ><defs><symbol id="settings" viewBox="0 0 64 64">
  <title>Settings</title>
  <desc>Settings symbol</desc>
  <g fill="currentColor">
    <path d="M53,35v-6h-4.8c-0.4-2.3-1.3-4.5-2.6-6.3l3.4-3.4L44.7,15l-3.4,3.4c-1.9-1.3-4-2.2-6.3-2.6V11h-6v4.8
		c-2.3,0.4-4.5,1.3-6.4,2.6L19.3,15L15,19.3l3.4,3.4c-1.3,1.9-2.2,4-2.6,6.3H11v6h4.8c0.4,2.3,1.3,4.5,2.6,6.3L15,44.7l4.2,4.2
		l3.4-3.4c1.9,1.3,4,2.2,6.3,2.6V53h6v-4.8c2.3-0.4,4.5-1.3,6.3-2.6l3.4,3.4l4.2-4.2l-3.4-3.4c1.3-1.9,2.2-4,2.6-6.3H53z M32,40.4c-4.6,0-8.4-3.8-8.4-8.4c0-4.6,3.8-8.4,8.4-8.4c4.6,0,8.4,3.8,8.4,8.4C40.4,36.6,36.6,40.4,32,40.4z"></path>
  </g>
 </symbol></defs><use xlink:href="#settings"></use></svg>