<svg xmlns="http://www.w3.org/2000/svg" xmlns:xlink="http://www.w3.org/1999/xlink" viewBox="0 0 800 600" width="800"  height="600" >
										<defs>
										  <radialGradient id="half-radial" fx="50%" fy="0%" r="50%">
											  <stop offset="0" stop-color="#ffff9f" stop-opacity="1"></stop>
											  <stop offset="1" stop-color="#ffff9f" stop-opacity="0"></stop>
										  </radialGradient>
										<radialGradient id="half-radial" fx="50%" fy="0%" r="50%">
											  <stop offset="0" stop-color="#ffff9f" stop-opacity="1"></stop>
											  <stop offset="1" stop-color="#ffff9f" stop-opacity="0"></stop>
										  </radialGradient><radialGradient id="half-radial" fx="50%" fy="0%" r="50%">
											  <stop offset="0" stop-color="#ffff9f" stop-opacity="1"></stop>
											  <stop offset="1" stop-color="#ffff9f" stop-opacity="0"></stop>
										  </radialGradient></defs>
										<g id="house-armed" style="opacity: 0;">
										  <rect x="194" y="356" opacity="0.75" fill="#D40050" width="86" height="138"></rect>
										  <path fill="#FFFFFF" d="M249.5,424v-4c0-6.63-5.37-12-12-12s-12,5.37-12,12v4h-4v22h32v-22H249.5z M239.5,435.45V442h-4v-6.55c-1.19-0.69-2-1.97-2-3.45c0-2.21,1.79-4,4-4s4,1.79,4,4C241.5,433.48,240.7,434.75,239.5,435.45z M243.5,424h-12v-4c0-3.31,2.69-6,6-6s6,2.69,6,6V424z"></path>
										 </g>
										 <g id="house-disarmed" style="opacity: 1;">
										  <rect x="194" y="356" opacity="0.75" fill="#97BF0D" width="86" height="138"></rect>
										  <path fill="#FFFFFF" d="M249.5,424v-6c0-6.63-5.37-12-12-12s-12,5.37-12,12h6c0-3.31,2.69-6,6-6s6,2.69,6,6v6h-22v22h32v-22H249.5zM239.5,435.45V442h-4v-6.55c-1.19-0.69-2-1.97-2-3.45c0-2.21,1.79-4,4-4s4,1.79,4,4C241.5,433.48,240.7,434.75,239.5,435.45z"></path>
										 </g>
										 <rect id="doorway-light" x="194" y="356" fill="url(&quot;#half-radial&quot;)" width="86" height="43"></rect>
										 <rect id="garage-light" x="328" y="373" fill="url(&quot;#half-radial&quot;)" width="260" height="130"></rect>
										 <line id="roll-doors" aria-valuenow="0" aria-valuemin="0" aria-valuemax="12" fill="none" stroke="#FFFFFF" stroke-width="250px" stroke-dasharray="20 5 20 5 20 5 20 5 20 110" x1="458" y1="380" x2="458" y2="500"></line>
									</svg>