<svg xmlns:xlink="http://www.w3.org/1999/xlink" xmlns="http://www.w3.org/2000/svg" class="icon-sprite icon-1x" width="64"  height="64" ><defs><symbol id="wash-machine" viewBox="0 0 64 64">
  <title>Wash machine</title>
  <desc>Wash machine symbol</desc>
  <g fill="currentColor">
    <path d="M16,13v8h32v-8H16z M27,19h-9v-4h9V19z M34,19c-1.1,0-2-0.9-2-2s0.9-2,2-2s2,0.9,2,2S35.1,19,34,19z M39,19
		c-1.1,0-2-0.9-2-2s0.9-2,2-2s2,0.9,2,2S40.1,19,39,19z M44,19c-1.1,0-2-0.9-2-2s0.9-2,2-2s2,0.9,2,2S45.1,19,44,19z"></path>
    <rect x="38" y="48" width="5" height="3"></rect>
    <path d="M16,22v29h21v-4h7v4h4V22H16z M32,46c-6.07,0-11-4.93-11-11c0-6.08,4.93-11,11-11c6.08,0,11,4.93,11,11
		C43,41.07,38.08,46,32,46z"></path>
    <path d="M32,25c-5.52,0-10,4.48-10,10c0,5.52,4.48,10,10,10s10-4.48,10-10C42,29.48,37.52,25,32,25z M25,35
		c0-3.87,3.13-7,7-7c2.55,0,4.78,1.37,6,3.41v5.02c-1.96-1.47-5.01-2.19-7.57,0.43c-1.92,1.92-4.28,0.72-5.12,0.2
		C25.11,36.41,25,35.72,25,35z"></path>
  </g>
 </symbol></defs>
									<use xlink:href="#wash-machine"></use>
								</svg>